<svg width="133" height="133" viewBox="0 0 133 133" fill="none" xmlns="http://www.w3.org/2000/svg">
<g id="notebook-svgrepo-com 4" opacity="0.6" clip-path="url(#clip0_3_1093)">
<g id="SVGRepo_iconCarrier">
<g id="Group">
<path id="Vector" d="M102.668 42.2408L96.3842 42.2408C93.8178 42.2408 91.7331 44.3298 91.7309 46.894L91.732 80.8271L97.9694 91.7408L97.9694 92.8851C97.9694 93.7406 98.6584 94.4318 99.5117 94.4406L99.5282 94.4682L99.5437 94.4417C99.9681 94.4384 100.353 94.2676 100.632 93.9886C100.914 93.7064 101.088 93.3162 101.088 92.8862L101.088 91.7397L107.324 80.8271L107.323 46.894C107.322 44.3265 105.235 42.2397 102.668 42.2408ZM94.8496 78.8538L94.8496 56.2699H104.205L104.205 78.8538L94.8496 78.8538ZM95.9774 81.9725L103.077 81.9725L99.5271 88.1856L95.9774 81.9725ZM104.204 46.894L104.204 53.1534L94.8496 53.1545L94.8496 46.8951C94.8496 46.0463 95.5397 45.3583 96.3853 45.3572L102.669 45.3572C103.515 45.3561 104.205 46.0462 104.204 46.894Z" fill="white" stroke="black" stroke-width="0.008"/>
<path id="Vector_2" d="M15.1239 55.4299L52.6055 17.9482L83.4728 48.8155L85.6776 46.6107L52.6055 13.5386L12.919 53.2251L1.89502 64.2491L68.0392 130.393L79.0632 119.369L95.5993 102.833L93.3945 100.628L76.8584 117.164L15.1239 55.4299ZM68.0392 125.984L6.30463 64.2491L12.919 57.6347L74.6536 119.369L68.0392 125.984Z" fill="white" stroke="black" stroke-width="0.008"/>
<path id="Vector_3" d="M71.3464 47.7131L55.9128 32.2794L29.4551 58.7371L44.8887 74.1708L71.3464 47.7131ZM33.8647 58.7371L55.9128 36.6891L66.9368 47.7131L44.8887 69.7611L33.8647 58.7371Z" fill="white" stroke="black" stroke-width="0.008"/>
<path id="Vector_4" d="M54.8104 42.2011L39.3767 57.6347L41.5815 59.8395L57.0152 44.4059L54.8104 42.2011Z" fill="white" stroke="black" stroke-width="0.008"/>
<path id="Vector_5" d="M59.22 46.6107L43.7863 62.0443L45.9911 64.2491L61.4248 48.8155L59.22 46.6107Z" fill="white" stroke="black" stroke-width="0.008"/>
</g>
</g>
</g>
<defs>
<clipPath id="clip0_3_1093">
<rect width="93.542" height="93.542" fill="white" transform="translate(0 66.1442) rotate(-45)"/>
</clipPath>
</defs>
</svg>
