<svg width="404" height="404" viewBox="0 0 404 404" fill="none" xmlns="http://www.w3.org/2000/svg">
<g clip-path="url(#clip0_57_124)">
<path d="M364.24 206.866L345.072 193.445C337.243 187.963 326.422 189.883 320.938 197.7L248.462 301.213L244.178 347.828L241.734 351.319C239.906 353.928 240.532 357.509 243.116 359.358L243.107 359.477L243.211 359.43C244.513 360.326 246.051 360.627 247.498 360.372C248.962 360.113 250.326 359.295 251.245 357.984L253.694 354.486L296.026 334.518L368.502 231.004C373.983 223.17 372.074 212.347 364.24 206.866ZM262.187 301.853L310.425 232.962L338.962 252.944L290.724 321.835L262.187 301.853ZM258.966 313.775L280.623 328.939L256.523 340.31L258.966 313.775ZM358.985 224.341L345.615 243.435L317.079 223.459L330.449 204.365C332.262 201.775 335.837 201.151 338.419 202.954L357.587 216.375C360.168 218.178 360.799 221.757 358.985 224.341Z" fill="#B3D1F9" stroke="black" stroke-width="0.008"/>
<path d="M69.0197 60.1095L263.415 25.8324L291.643 185.922L303.078 183.906L272.834 12.3811L67.0034 48.6745L9.8284 58.756L70.3174 401.806L127.492 391.725L213.255 376.602L211.239 365.167L125.476 380.29L69.0197 60.1095ZM79.7361 388.355L23.2797 68.1747L57.5847 62.1258L114.041 382.306L79.7361 388.355Z" fill="#B3D1F9" stroke="black" stroke-width="0.008"/>
<path d="M257.007 156.658L242.893 76.6132L105.672 100.809L119.787 180.854L257.007 156.658ZM119.124 110.227L233.474 90.0645L243.555 147.24L129.205 167.403L119.124 110.227Z" fill="#B3D1F9" stroke="black" stroke-width="0.008"/>
<path d="M218.338 104.524L138.293 118.638L140.309 130.073L220.354 115.959L218.338 104.524Z" fill="#B3D1F9" stroke="black" stroke-width="0.008"/>
<path d="M222.37 127.394L142.325 141.508L144.341 152.943L224.387 138.829L222.37 127.394Z" fill="#B3D1F9" stroke="black" stroke-width="0.008"/>
</g>
<defs>
<clipPath id="clip0_57_124">
<rect width="348.342" height="348.342" fill="white" transform="translate(0 60.489) rotate(-10)"/>
</clipPath>
</defs>
</svg>
