<svg width="169" height="169" viewBox="0 0 169 169" fill="none" xmlns="http://www.w3.org/2000/svg">
<g id="notebook-svgrepo-com 5" clip-path="url(#clip0_3_1181)">
<g id="SVGRepo_iconCarrier">
<g id="Group">
<path id="Vector" d="M136.7 116.975L132.985 109.008C131.468 105.754 127.587 104.346 124.334 105.859L81.3111 125.923L71.1613 140.284L69.7104 140.96C68.6258 141.466 68.1568 142.748 68.6501 143.836L68.6249 143.873L68.6676 143.877C68.9227 144.413 69.3668 144.8 69.8853 144.988C70.41 145.179 71.0078 145.169 71.5529 144.915L73.0066 144.237L90.5298 145.693L133.553 125.629C136.807 124.109 138.22 120.23 136.7 116.975ZM85.6563 128.709L114.29 115.357L119.821 127.218L91.1872 140.57L85.6563 128.709ZM82.3689 131.983L86.5663 140.984L76.5899 140.157L82.3689 131.983ZM131.708 121.673L123.772 125.374L118.24 113.515L126.177 109.814C127.253 109.312 128.533 109.781 129.034 110.852L132.749 118.819C133.251 119.89 132.784 121.173 131.708 121.673Z" fill="#B3D1F9" stroke="black" stroke-width="0.008"/>
<path id="Vector_2" d="M68.219 13.7761L137.902 39.1387L117.015 96.525L121.114 98.0169L143.493 36.5316L69.7109 9.67707L49.2159 2.21747L4.45826 125.188L24.9533 132.648L55.696 143.837L57.1879 139.738L26.4453 128.549L68.219 13.7761ZM10.0492 122.581L51.823 7.8084L64.12 12.2842L22.3462 127.057L10.0492 122.581Z" fill="#B3D1F9" stroke="black" stroke-width="0.008"/>
<path id="Vector_3" d="M111.244 80.4981L121.687 51.805L72.4989 33.902L62.0554 62.5951L111.244 80.4981ZM75.106 39.4929L116.096 54.4121L108.637 74.9072L67.6464 59.988L75.106 39.4929Z" fill="#B3D1F9" stroke="black" stroke-width="0.008"/>
<path id="Vector_4" d="M108.456 56.2732L79.7626 45.8298L78.2707 49.9288L106.964 60.3722L108.456 56.2732Z" fill="#B3D1F9" stroke="black" stroke-width="0.008"/>
<path id="Vector_5" d="M105.472 64.4713L76.7787 54.0278L75.2868 58.1268L103.98 68.5703L105.472 64.4713Z" fill="#B3D1F9" stroke="black" stroke-width="0.008"/>
</g>
</g>
</g>
<defs>
<clipPath id="clip0_3_1181">
<rect width="130.862" height="130.862" fill="white" transform="translate(45.6927 0.935181) rotate(20)"/>
</clipPath>
</defs>
</svg>
