<svg width="33" height="32" viewBox="0 0 33 32" fill="none" xmlns="http://www.w3.org/2000/svg">
<g id="bxl-instagram-alt.svg">
<path id="Vector" d="M28.4293 11.0733C28.4159 10.0634 28.2268 9.06364 27.8707 8.11861C27.5618 7.32148 27.0901 6.59754 26.4856 5.99305C25.8811 5.38856 25.1571 4.91681 24.36 4.60794C23.4271 4.25775 22.4416 4.0684 21.4453 4.04794C20.1627 3.99061 19.756 3.97461 16.5 3.97461C13.244 3.97461 12.8267 3.97461 11.5533 4.04794C10.5575 4.06855 9.57246 4.2579 8.64 4.60794C7.84274 4.9166 7.1187 5.38827 6.51418 5.99279C5.90966 6.5973 5.43799 7.32135 5.12933 8.11861C4.77844 9.05079 4.5895 10.0361 4.57067 11.0319C4.51333 12.3159 4.496 12.7226 4.496 15.9786C4.496 19.2346 4.496 19.6506 4.57067 20.9253C4.59067 21.9226 4.77867 22.9066 5.12933 23.8413C5.4385 24.6383 5.91053 25.362 6.51525 25.9663C7.11997 26.5706 7.84409 27.042 8.64133 27.3506C9.57125 27.7149 10.5565 27.9178 11.5547 27.9506C12.8387 28.0079 13.2453 28.0253 16.5013 28.0253C19.7573 28.0253 20.1747 28.0253 21.448 27.9506C22.4442 27.931 23.4298 27.7421 24.3627 27.3919C25.1596 27.0827 25.8833 26.6108 26.4878 26.0064C27.0922 25.402 27.5641 24.6782 27.8733 23.8813C28.224 22.9479 28.412 21.9639 28.432 20.9653C28.4893 19.6826 28.5067 19.2759 28.5067 16.0186C28.504 12.7626 28.504 12.3493 28.4293 11.0733ZM16.492 22.1359C13.0867 22.1359 10.328 19.3773 10.328 15.9719C10.328 12.5666 13.0867 9.80794 16.492 9.80794C18.1268 9.80794 19.6946 10.4574 20.8506 11.6133C22.0066 12.7693 22.656 14.3371 22.656 15.9719C22.656 17.6067 22.0066 19.1746 20.8506 20.3305C19.6946 21.4865 18.1268 22.1359 16.492 22.1359ZM22.9013 11.0173C22.7125 11.0175 22.5255 10.9804 22.3511 10.9082C22.1766 10.8361 22.0181 10.7302 21.8846 10.5967C21.7511 10.4632 21.6452 10.3047 21.5731 10.1302C21.5009 9.95573 21.4638 9.76875 21.464 9.57994C21.464 9.39128 21.5012 9.20446 21.5734 9.03015C21.6456 8.85585 21.7514 8.69747 21.8848 8.56407C22.0182 8.43066 22.1766 8.32484 22.3509 8.25264C22.5252 8.18044 22.712 8.14328 22.9007 8.14328C23.0893 8.14328 23.2762 8.18044 23.4505 8.25264C23.6248 8.32484 23.7831 8.43066 23.9165 8.56407C24.05 8.69747 24.1558 8.85585 24.228 9.03015C24.3002 9.20446 24.3373 9.39128 24.3373 9.57994C24.3373 10.3746 23.6947 11.0173 22.9013 11.0173Z" fill="black"/>
<path id="Vector_2" d="M16.492 19.976C18.7033 19.976 20.496 18.1834 20.496 15.972C20.496 13.7607 18.7033 11.968 16.492 11.968C14.2807 11.968 12.488 13.7607 12.488 15.972C12.488 18.1834 14.2807 19.976 16.492 19.976Z" fill="black"/>
</g>
</svg>
