<svg width="51" height="52" viewBox="0 0 51 52" fill="none" xmlns="http://www.w3.org/2000/svg">
<g id="notebook-svgrepo-com 1" clip-path="url(#clip0_52_52)">
<g id="SVGRepo_iconCarrier">
<g id="Group">
<path id="Vector" d="M48.7959 30.8654L46.3734 28.4429C45.384 27.4535 43.7749 27.4552 42.7855 28.4429L29.704 41.5252L27.9012 48.1374L27.46 48.5785C27.1302 48.9083 27.1294 49.4404 27.4549 49.7728L27.4507 49.7898L27.4668 49.7855C27.6317 49.9479 27.8459 50.0303 28.061 50.0303C28.2786 50.0303 28.4962 49.947 28.6619 49.7813L29.1039 49.3393L35.7152 47.5364L48.7967 34.4541C49.7861 33.4638 49.7861 31.8548 48.7959 30.8654ZM31.6667 41.9664L40.3732 33.2598L43.9798 36.8664L35.2732 45.5729L31.6667 41.9664ZM30.8991 43.6035L33.6361 46.3405L29.8723 47.3673L30.8991 43.6035ZM47.594 33.2513L45.1808 35.6645L41.5743 32.0588L43.9874 29.6456C44.3147 29.3184 44.8459 29.3192 45.1723 29.6448L47.5948 32.0673C47.9212 32.3928 47.9212 32.9249 47.594 33.2513Z" fill="#0A69ED"/>
<path id="Vector_2" d="M9.96112 2.2H38.8611V26H40.5611V0.5H9.96112H1.46112V51.5H9.96112H22.7111V49.8H9.96112V2.2ZM3.16112 49.8V2.2H8.26112V49.8H3.16112Z" fill="#0A69ED"/>
<path id="Vector_3" d="M34.6111 20.9V9H14.2111V20.9H34.6111ZM15.9111 10.7H32.9111V19.2H15.9111V10.7Z" fill="#0A69ED"/>
<path id="Vector_4" d="M30.3611 12.4H18.4611V14.1H30.3611V12.4Z" fill="#0A69ED"/>
<path id="Vector_5" d="M30.3611 15.8H18.4611V17.5H30.3611V15.8Z" fill="#0A69ED"/>
</g>
</g>
</g>
<defs>
<clipPath id="clip0_52_52">
<rect width="51" height="51" fill="white" transform="translate(0 0.5)"/>
</clipPath>
</defs>
</svg>
